<svg width="54" height="53" viewBox="0 0 54 53" fill="none" xmlns="http://www.w3.org/2000/svg">
<circle cx="26.6499" cy="26.6257" r="26.3687" fill="#F5F8FA"/>
<g clip-path="url(#clip0_0_406)">
<path d="M27.3089 28.768C28.8563 28.768 30.1106 27.5136 30.1106 25.9663C30.1106 24.419 28.8563 23.1646 27.3089 23.1646C25.7616 23.1646 24.5073 24.419 24.5073 25.9663C24.5073 27.5136 25.7616 28.768 27.3089 28.768Z" fill="#1C2B39"/>
<path d="M27.3089 37.173C28.8563 37.173 30.1106 35.9186 30.1106 34.3713C30.1106 32.824 28.8563 31.5696 27.3089 31.5696C25.7616 31.5696 24.5073 32.824 24.5073 34.3713C24.5073 35.9186 25.7616 37.173 27.3089 37.173Z" fill="#1C2B39"/>
<path d="M27.3089 20.3629C28.8563 20.3629 30.1106 19.1086 30.1106 17.5613C30.1106 16.0139 28.8563 14.7596 27.3089 14.7596C25.7616 14.7596 24.5073 16.0139 24.5073 17.5613C24.5073 19.1086 25.7616 20.3629 27.3089 20.3629Z" fill="#1C2B39"/>
</g>
<defs>
<clipPath id="clip0_0_406">
<rect width="22.4134" height="22.4134" fill="white" transform="translate(16.1022 14.7596)"/>
</clipPath>
</defs>
</svg>
