<svg width="102" height="102" viewBox="0 0 102 102" fill="none" xmlns="http://www.w3.org/2000/svg">
<circle cx="51.3112" cy="50.7859" r="49.4413" fill="white" stroke="#E2E7EB" stroke-width="2"/>
<g clip-path="url(#clip0_0_638)">
<path d="M72.0764 48.4787H53.6186V30.0204C53.6186 28.7471 52.5848 27.7133 51.311 27.7133C50.0377 27.7133 49.0039 28.7471 49.0039 30.0204V48.4787H30.5456C29.2723 48.4787 28.2385 49.5124 28.2385 50.7858C28.2385 52.0595 29.2723 53.0933 30.5456 53.0933H49.0039V71.5511C49.0039 72.8249 50.0377 73.8587 51.311 73.8587C52.5848 73.8587 53.6186 72.8249 53.6186 71.5511V53.0933H72.0764C73.3501 53.0933 74.3839 52.0595 74.3839 50.7858C74.3839 49.5124 73.3501 48.4787 72.0764 48.4787Z" fill="#1C2B39"/>
</g>
<defs>
<clipPath id="clip0_0_638">
<rect width="46.1453" height="46.1453" fill="white" transform="translate(28.2385 27.7133)"/>
</clipPath>
</defs>
</svg>
