<svg width="461" height="35" viewBox="0 0 461 35" fill="none" xmlns="http://www.w3.org/2000/svg">
<rect x="1.86206" y="27.9125" width="458.156" height="6.59218" rx="3.29609" fill="#C9E3FF"/>
<rect x="1.86206" y="27.9125" width="351.746" height="6.59218" rx="3.29609" fill="#0070EA"/>
<path d="M439.3 3.82007V4.89331C438.986 5.19865 438.567 5.72957 438.042 6.48608C437.523 7.24259 437.063 8.05835 436.662 8.93335C436.265 9.78556 435.964 10.5626 435.759 11.2644C435.627 11.7156 435.456 12.4425 435.247 13.4451H433.886C434.196 11.5766 434.88 9.7172 435.937 7.86694C436.561 6.78231 437.218 5.84578 437.906 5.05737H432.492V3.82007H439.3ZM440.209 13.4451C440.255 12.602 440.428 11.8682 440.729 11.2439C441.034 10.6195 441.627 10.0522 442.506 9.54175L443.819 8.78296C444.407 8.44116 444.819 8.1495 445.056 7.90796C445.43 7.5297 445.617 7.09676 445.617 6.60913C445.617 6.03947 445.446 5.5883 445.104 5.25562C444.762 4.91838 444.306 4.74976 443.737 4.74976C442.894 4.74976 442.31 5.06877 441.987 5.70679C441.814 6.04858 441.718 6.52254 441.7 7.12866H440.449C440.462 6.27645 440.62 5.58146 440.92 5.0437C441.454 4.09578 442.395 3.62183 443.744 3.62183C444.865 3.62183 445.683 3.92489 446.198 4.53101C446.717 5.13713 446.977 5.8116 446.977 6.55444C446.977 7.3383 446.701 8.00822 446.15 8.56421C445.831 8.88778 445.259 9.2797 444.434 9.73999L443.498 10.2595C443.051 10.5056 442.7 10.7403 442.445 10.9636C441.989 11.3601 441.702 11.7999 441.583 12.283H446.929V13.4451H440.209ZM457.108 8.68726C457.764 8.68726 458.325 8.91968 458.79 9.38452C459.254 9.84937 459.487 10.4099 459.487 11.0662C459.487 11.7224 459.254 12.283 458.79 12.7478C458.325 13.2126 457.764 13.4451 457.108 13.4451C456.447 13.4451 455.884 13.2126 455.419 12.7478C454.955 12.283 454.722 11.7224 454.722 11.0662C454.722 10.4099 454.955 9.84937 455.419 9.38452C455.884 8.91968 456.447 8.68726 457.108 8.68726ZM456.117 3.69702H456.875L451.4 13.7048H450.641L456.117 3.69702ZM450.395 7.7439C450.787 7.7439 451.12 7.60718 451.393 7.33374C451.671 7.05575 451.81 6.72306 451.81 6.33569C451.81 5.94832 451.671 5.61792 451.393 5.34448C451.12 5.06649 450.787 4.92749 450.395 4.92749C450.008 4.92749 449.675 5.06421 449.397 5.33765C449.123 5.61108 448.987 5.94377 448.987 6.33569C448.987 6.72306 449.123 7.05575 449.397 7.33374C449.675 7.60718 450.008 7.7439 450.395 7.7439ZM450.395 3.94995C451.056 3.94995 451.619 4.18465 452.083 4.65405C452.548 5.1189 452.781 5.67944 452.781 6.33569C452.781 6.99194 452.548 7.55249 452.083 8.01733C451.619 8.48218 451.056 8.7146 450.395 8.7146C449.739 8.7146 449.178 8.48218 448.713 8.01733C448.248 7.55249 448.016 6.99194 448.016 6.33569C448.016 5.67944 448.248 5.1189 448.713 4.65405C449.178 4.18465 449.739 3.94995 450.395 3.94995ZM457.108 12.4744C457.495 12.4744 457.826 12.3376 458.099 12.0642C458.377 11.7862 458.516 11.4535 458.516 11.0662C458.516 10.6788 458.377 10.3484 458.099 10.075C457.826 9.79696 457.495 9.65796 457.108 9.65796C456.716 9.65796 456.381 9.79696 456.103 10.075C455.83 10.3484 455.693 10.6788 455.693 11.0662C455.693 11.4535 455.83 11.7862 456.103 12.0642C456.381 12.3376 456.716 12.4744 457.108 12.4744Z" fill="#1C2B39"/>
<path d="M0.875306 5.54776H8.96731V7.05976H5.78931V15.5438H4.03931V7.05976H0.875306V5.54776ZM11.515 5.54776H13.377L17.227 15.5438H15.351L14.413 12.8978H10.423L9.48498 15.5438H7.67898L11.515 5.54776ZM10.899 11.5678H13.951L12.453 7.26976H12.411L10.899 11.5678ZM19.3269 12.2118C19.3269 12.5944 19.3922 12.9211 19.5229 13.1918C19.6535 13.4624 19.8355 13.6864 20.0689 13.8638C20.3022 14.0318 20.5682 14.1578 20.8669 14.2418C21.1749 14.3164 21.5062 14.3538 21.8609 14.3538C22.2435 14.3538 22.5702 14.3118 22.8409 14.2278C23.1115 14.1344 23.3309 14.0178 23.4989 13.8778C23.6669 13.7378 23.7882 13.5791 23.8629 13.4018C23.9375 13.2151 23.9749 13.0284 23.9749 12.8418C23.9749 12.4591 23.8862 12.1791 23.7089 12.0018C23.5409 11.8151 23.3542 11.6844 23.1489 11.6098C22.7942 11.4791 22.3789 11.3578 21.9029 11.2458C21.4362 11.1244 20.8575 10.9704 20.1669 10.7838C19.7375 10.6718 19.3782 10.5271 19.0889 10.3498C18.8089 10.1631 18.5849 9.95776 18.4169 9.73376C18.2489 9.50976 18.1275 9.27176 18.0529 9.01976C17.9875 8.76776 17.9549 8.5111 17.9549 8.24976C17.9549 7.74576 18.0575 7.31176 18.2629 6.94776C18.4775 6.57443 18.7575 6.26643 19.1029 6.02376C19.4482 5.7811 19.8402 5.60376 20.2789 5.49176C20.7175 5.37043 21.1609 5.30976 21.6089 5.30976C22.1315 5.30976 22.6215 5.37976 23.0789 5.51976C23.5455 5.65043 23.9515 5.8511 24.2969 6.12176C24.6515 6.39243 24.9315 6.72843 25.1369 7.12976C25.3422 7.52176 25.4449 7.9791 25.4449 8.50176H23.6949C23.6482 7.85776 23.4289 7.4051 23.0369 7.14376C22.6449 6.8731 22.1455 6.73776 21.5389 6.73776C21.3335 6.73776 21.1235 6.7611 20.9089 6.80776C20.6942 6.8451 20.4982 6.9151 20.3209 7.01776C20.1435 7.1111 19.9942 7.24176 19.8729 7.40976C19.7609 7.57776 19.7049 7.78776 19.7049 8.03976C19.7049 8.39443 19.8122 8.67443 20.0269 8.87976C20.2509 9.07576 20.5402 9.2251 20.8949 9.32776C20.9322 9.3371 21.0769 9.3791 21.3289 9.45376C21.5902 9.5191 21.8795 9.59376 22.1969 9.67776C22.5142 9.76176 22.8222 9.84576 23.1209 9.92976C23.4289 10.0044 23.6482 10.0604 23.7789 10.0978C24.1055 10.2004 24.3902 10.3404 24.6329 10.5178C24.8755 10.6951 25.0762 10.9004 25.2349 11.1338C25.4029 11.3578 25.5242 11.6004 25.5989 11.8618C25.6829 12.1231 25.7249 12.3844 25.7249 12.6458C25.7249 13.2058 25.6082 13.6864 25.3749 14.0878C25.1509 14.4798 24.8522 14.8018 24.4789 15.0538C24.1055 15.3058 23.6809 15.4878 23.2049 15.5998C22.7289 15.7211 22.2435 15.7818 21.7489 15.7818C21.1795 15.7818 20.6429 15.7118 20.1389 15.5718C19.6349 15.4318 19.1962 15.2171 18.8229 14.9278C18.4495 14.6384 18.1509 14.2698 17.9269 13.8218C17.7029 13.3644 17.5862 12.8278 17.5769 12.2118H19.3269ZM27.257 5.54776H29.007V10.0978L33.459 5.54776H35.615L31.625 9.53776L35.895 15.5438H33.711L30.435 10.7698L29.007 12.1838V15.5438H27.257V5.54776ZM40.7375 5.54776H45.1475C45.8568 5.54776 46.4355 5.65043 46.8835 5.85576C47.3315 6.0611 47.6768 6.31776 47.9195 6.62576C48.1621 6.93376 48.3255 7.26976 48.4095 7.63376C48.5028 7.99776 48.5495 8.33376 48.5495 8.64176C48.5495 8.94976 48.5028 9.28576 48.4095 9.64976C48.3255 10.0044 48.1621 10.3358 47.9195 10.6438C47.6768 10.9518 47.3315 11.2084 46.8835 11.4138C46.4355 11.6098 45.8568 11.7078 45.1475 11.7078H42.4875V15.5438H40.7375V5.54776ZM42.4875 10.2798H45.0495C45.2455 10.2798 45.4461 10.2518 45.6515 10.1958C45.8568 10.1398 46.0435 10.0511 46.2115 9.92976C46.3888 9.7991 46.5288 9.6311 46.6315 9.42576C46.7435 9.2111 46.7995 8.9451 46.7995 8.62776C46.7995 8.3011 46.7528 8.03043 46.6595 7.81576C46.5661 7.60109 46.4401 7.4331 46.2815 7.31176C46.1228 7.1811 45.9408 7.09243 45.7355 7.04576C45.5301 6.99909 45.3108 6.97576 45.0775 6.97576H42.4875V10.2798ZM50.0754 5.54776H54.8494C55.9507 5.54776 56.7767 5.78576 57.3274 6.26176C57.878 6.73776 58.1534 7.40043 58.1534 8.24976C58.1534 8.72576 58.0834 9.12243 57.9434 9.43976C57.8034 9.74776 57.64 9.99976 57.4534 10.1958C57.2667 10.3824 57.08 10.5178 56.8934 10.6018C56.716 10.6858 56.5854 10.7418 56.5014 10.7698V10.7978C56.6507 10.8164 56.8094 10.8631 56.9774 10.9378C57.1547 11.0124 57.318 11.1338 57.4674 11.3018C57.6167 11.4604 57.738 11.6704 57.8314 11.9318C57.934 12.1931 57.9854 12.5198 57.9854 12.9118C57.9854 13.4998 58.0274 14.0364 58.1114 14.5218C58.2047 14.9978 58.3447 15.3384 58.5314 15.5438H56.6554C56.5247 15.3291 56.4454 15.0911 56.4174 14.8298C56.3987 14.5684 56.3894 14.3164 56.3894 14.0738C56.3894 13.6164 56.3614 13.2244 56.3054 12.8978C56.2494 12.5618 56.1467 12.2864 55.9974 12.0718C55.848 11.8478 55.6427 11.6844 55.3814 11.5818C55.1294 11.4791 54.8027 11.4278 54.4014 11.4278H51.8254V15.5438H50.0754V5.54776ZM51.8254 10.0978H54.6954C55.2554 10.0978 55.68 9.9671 55.9694 9.70576C56.2587 9.4351 56.4034 9.03376 56.4034 8.50176C56.4034 8.18443 56.3567 7.92776 56.2634 7.73176C56.17 7.52643 56.0394 7.36776 55.8714 7.25576C55.7127 7.14376 55.526 7.0691 55.3114 7.03176C55.106 6.99443 54.8914 6.97576 54.6674 6.97576H51.8254V10.0978ZM64.1888 6.73776C63.6568 6.73776 63.1948 6.8451 62.8028 7.05976C62.4201 7.27443 62.1074 7.56376 61.8648 7.92776C61.6221 8.28243 61.4401 8.68843 61.3188 9.14576C61.2068 9.6031 61.1508 10.0698 61.1508 10.5458C61.1508 11.0218 61.2068 11.4884 61.3188 11.9458C61.4401 12.4031 61.6221 12.8138 61.8648 13.1778C62.1074 13.5324 62.4201 13.8171 62.8028 14.0318C63.1948 14.2464 63.6568 14.3538 64.1888 14.3538C64.7208 14.3538 65.1781 14.2464 65.5608 14.0318C65.9528 13.8171 66.2701 13.5324 66.5128 13.1778C66.7554 12.8138 66.9328 12.4031 67.0448 11.9458C67.1661 11.4884 67.2268 11.0218 67.2268 10.5458C67.2268 10.0698 67.1661 9.6031 67.0448 9.14576C66.9328 8.68843 66.7554 8.28243 66.5128 7.92776C66.2701 7.56376 65.9528 7.27443 65.5608 7.05976C65.1781 6.8451 64.7208 6.73776 64.1888 6.73776ZM64.1888 5.30976C64.9354 5.30976 65.6028 5.44976 66.1908 5.72976C66.7881 6.00976 67.2921 6.38776 67.7028 6.86376C68.1134 7.33976 68.4261 7.8951 68.6408 8.52976C68.8648 9.16443 68.9768 9.83643 68.9768 10.5458C68.9768 11.2644 68.8648 11.9411 68.6408 12.5758C68.4261 13.2104 68.1134 13.7658 67.7028 14.2418C67.2921 14.7178 66.7881 15.0958 66.1908 15.3758C65.6028 15.6464 64.9354 15.7818 64.1888 15.7818C63.4421 15.7818 62.7701 15.6464 62.1728 15.3758C61.5848 15.0958 61.0854 14.7178 60.6748 14.2418C60.2641 13.7658 59.9468 13.2104 59.7228 12.5758C59.5081 11.9411 59.4008 11.2644 59.4008 10.5458C59.4008 9.83643 59.5081 9.16443 59.7228 8.52976C59.9468 7.8951 60.2641 7.33976 60.6748 6.86376C61.0854 6.38776 61.5848 6.00976 62.1728 5.72976C62.7701 5.44976 63.4421 5.30976 64.1888 5.30976ZM79.2915 15.5438H78.1715L77.9055 14.3678C77.4388 14.8998 76.9722 15.2684 76.5055 15.4738C76.0388 15.6791 75.5022 15.7818 74.8955 15.7818C74.1488 15.7818 73.4768 15.6464 72.8795 15.3758C72.2915 15.0958 71.7922 14.7178 71.3815 14.2418C70.9708 13.7658 70.6535 13.2104 70.4295 12.5758C70.2148 11.9411 70.1075 11.2644 70.1075 10.5458C70.1075 9.83643 70.2148 9.16443 70.4295 8.52976C70.6535 7.8951 70.9708 7.33976 71.3815 6.86376C71.7922 6.38776 72.2915 6.00976 72.8795 5.72976C73.4768 5.44976 74.1488 5.30976 74.8955 5.30976C75.4368 5.30976 75.9502 5.38443 76.4355 5.53376C76.9302 5.67376 77.3688 5.88843 77.7515 6.17776C78.1342 6.45776 78.4515 6.81243 78.7035 7.24176C78.9555 7.67109 79.1142 8.16576 79.1795 8.72576H77.4715C77.4248 8.3991 77.3222 8.11443 77.1635 7.87176C77.0142 7.61976 76.8228 7.40976 76.5895 7.24176C76.3562 7.07376 76.0948 6.94776 75.8055 6.86376C75.5162 6.77976 75.2128 6.73776 74.8955 6.73776C74.3635 6.73776 73.9015 6.8451 73.5095 7.05976C73.1268 7.27443 72.8142 7.56376 72.5715 7.92776C72.3288 8.28243 72.1468 8.68843 72.0255 9.14576C71.9135 9.6031 71.8575 10.0698 71.8575 10.5458C71.8575 11.0218 71.9135 11.4884 72.0255 11.9458C72.1468 12.4031 72.3288 12.8138 72.5715 13.1778C72.8142 13.5324 73.1268 13.8171 73.5095 14.0318C73.9015 14.2464 74.3635 14.3538 74.8955 14.3538C75.3435 14.3631 75.7402 14.3071 76.0855 14.1858C76.4308 14.0551 76.7202 13.8731 76.9535 13.6398C77.1962 13.3971 77.3782 13.1031 77.4995 12.7578C77.6208 12.4124 77.6862 12.0298 77.6955 11.6098H75.0355V10.2798H79.2915V15.5438ZM81.1925 5.54776H85.9665C87.0679 5.54776 87.8939 5.78576 88.4445 6.26176C88.9952 6.73776 89.2705 7.40043 89.2705 8.24976C89.2705 8.72576 89.2005 9.12243 89.0605 9.43976C88.9205 9.74776 88.7572 9.99976 88.5705 10.1958C88.3839 10.3824 88.1972 10.5178 88.0105 10.6018C87.8332 10.6858 87.7025 10.7418 87.6185 10.7698V10.7978C87.7679 10.8164 87.9265 10.8631 88.0945 10.9378C88.2719 11.0124 88.4352 11.1338 88.5845 11.3018C88.7339 11.4604 88.8552 11.6704 88.9485 11.9318C89.0512 12.1931 89.1025 12.5198 89.1025 12.9118C89.1025 13.4998 89.1445 14.0364 89.2285 14.5218C89.3219 14.9978 89.4619 15.3384 89.6485 15.5438H87.7725C87.6419 15.3291 87.5625 15.0911 87.5345 14.8298C87.5159 14.5684 87.5065 14.3164 87.5065 14.0738C87.5065 13.6164 87.4785 13.2244 87.4225 12.8978C87.3665 12.5618 87.2639 12.2864 87.1145 12.0718C86.9652 11.8478 86.7599 11.6844 86.4985 11.5818C86.2465 11.4791 85.9199 11.4278 85.5185 11.4278H82.9425V15.5438H81.1925V5.54776ZM82.9425 10.0978H85.8125C86.3725 10.0978 86.7972 9.9671 87.0865 9.70576C87.3759 9.4351 87.5205 9.03376 87.5205 8.50176C87.5205 8.18443 87.4739 7.92776 87.3805 7.73176C87.2872 7.52643 87.1565 7.36776 86.9885 7.25576C86.8299 7.14376 86.6432 7.0691 86.4285 7.03176C86.2232 6.99443 86.0085 6.97576 85.7845 6.97576H82.9425V10.0978ZM91.05 5.54776H98.246V7.05976H92.8V9.67776H97.84V11.1058H92.8V14.0318H98.344V15.5438H91.05V5.54776ZM101.016 12.2118C101.016 12.5944 101.082 12.9211 101.212 13.1918C101.343 13.4624 101.525 13.6864 101.758 13.8638C101.992 14.0318 102.258 14.1578 102.556 14.2418C102.864 14.3164 103.196 14.3538 103.55 14.3538C103.933 14.3538 104.26 14.3118 104.53 14.2278C104.801 14.1344 105.02 14.0178 105.188 13.8778C105.356 13.7378 105.478 13.5791 105.552 13.4018C105.627 13.2151 105.664 13.0284 105.664 12.8418C105.664 12.4591 105.576 12.1791 105.398 12.0018C105.23 11.8151 105.044 11.6844 104.838 11.6098C104.484 11.4791 104.068 11.3578 103.592 11.2458C103.126 11.1244 102.547 10.9704 101.856 10.7838C101.427 10.6718 101.068 10.5271 100.778 10.3498C100.498 10.1631 100.274 9.95776 100.106 9.73376C99.9383 9.50976 99.817 9.27176 99.7423 9.01976C99.677 8.76776 99.6443 8.5111 99.6443 8.24976C99.6443 7.74576 99.747 7.31176 99.9523 6.94776C100.167 6.57443 100.447 6.26643 100.792 6.02376C101.138 5.7811 101.53 5.60376 101.968 5.49176C102.407 5.37043 102.85 5.30976 103.298 5.30976C103.821 5.30976 104.311 5.37976 104.768 5.51976C105.235 5.65043 105.641 5.8511 105.986 6.12176C106.341 6.39243 106.621 6.72843 106.826 7.12976C107.032 7.52176 107.134 7.9791 107.134 8.50176H105.384C105.338 7.85776 105.118 7.4051 104.726 7.14376C104.334 6.8731 103.835 6.73776 103.228 6.73776C103.023 6.73776 102.813 6.7611 102.598 6.80776C102.384 6.8451 102.188 6.9151 102.01 7.01776C101.833 7.1111 101.684 7.24176 101.562 7.40976C101.45 7.57776 101.394 7.78776 101.394 8.03976C101.394 8.39443 101.502 8.67443 101.716 8.87976C101.94 9.07576 102.23 9.2251 102.584 9.32776C102.622 9.3371 102.766 9.3791 103.018 9.45376C103.28 9.5191 103.569 9.59376 103.886 9.67776C104.204 9.76176 104.512 9.84576 104.81 9.92976C105.118 10.0044 105.338 10.0604 105.468 10.0978C105.795 10.2004 106.08 10.3404 106.322 10.5178C106.565 10.6951 106.766 10.9004 106.924 11.1338C107.092 11.3578 107.214 11.6004 107.288 11.8618C107.372 12.1231 107.414 12.3844 107.414 12.6458C107.414 13.2058 107.298 13.6864 107.064 14.0878C106.84 14.4798 106.542 14.8018 106.168 15.0538C105.795 15.3058 105.37 15.4878 104.894 15.5998C104.418 15.7211 103.933 15.7818 103.438 15.7818C102.869 15.7818 102.332 15.7118 101.828 15.5718C101.324 15.4318 100.886 15.2171 100.512 14.9278C100.139 14.6384 99.8403 14.2698 99.6163 13.8218C99.3923 13.3644 99.2757 12.8278 99.2663 12.2118H101.016ZM110.094 12.2118C110.094 12.5944 110.16 12.9211 110.29 13.1918C110.421 13.4624 110.603 13.6864 110.836 13.8638C111.07 14.0318 111.336 14.1578 111.634 14.2418C111.942 14.3164 112.274 14.3538 112.628 14.3538C113.011 14.3538 113.338 14.3118 113.608 14.2278C113.879 14.1344 114.098 14.0178 114.266 13.8778C114.434 13.7378 114.556 13.5791 114.63 13.4018C114.705 13.2151 114.742 13.0284 114.742 12.8418C114.742 12.4591 114.654 12.1791 114.476 12.0018C114.308 11.8151 114.122 11.6844 113.916 11.6098C113.562 11.4791 113.146 11.3578 112.67 11.2458C112.204 11.1244 111.625 10.9704 110.934 10.7838C110.505 10.6718 110.146 10.5271 109.856 10.3498C109.576 10.1631 109.352 9.95776 109.184 9.73376C109.016 9.50976 108.895 9.27176 108.82 9.01976C108.755 8.76776 108.722 8.5111 108.722 8.24976C108.722 7.74576 108.825 7.31176 109.03 6.94776C109.245 6.57443 109.525 6.26643 109.87 6.02376C110.216 5.7811 110.608 5.60376 111.046 5.49176C111.485 5.37043 111.928 5.30976 112.376 5.30976C112.899 5.30976 113.389 5.37976 113.846 5.51976C114.313 5.65043 114.719 5.8511 115.064 6.12176C115.419 6.39243 115.699 6.72843 115.904 7.12976C116.11 7.52176 116.212 7.9791 116.212 8.50176H114.462C114.416 7.85776 114.196 7.4051 113.804 7.14376C113.412 6.8731 112.913 6.73776 112.306 6.73776C112.101 6.73776 111.891 6.7611 111.676 6.80776C111.462 6.8451 111.266 6.9151 111.088 7.01776C110.911 7.1111 110.762 7.24176 110.64 7.40976C110.528 7.57776 110.472 7.78776 110.472 8.03976C110.472 8.39443 110.58 8.67443 110.794 8.87976C111.018 9.07576 111.308 9.2251 111.662 9.32776C111.7 9.3371 111.844 9.3791 112.096 9.45376C112.358 9.5191 112.647 9.59376 112.964 9.67776C113.282 9.76176 113.59 9.84576 113.888 9.92976C114.196 10.0044 114.416 10.0604 114.546 10.0978C114.873 10.2004 115.158 10.3404 115.4 10.5178C115.643 10.6951 115.844 10.9004 116.002 11.1338C116.17 11.3578 116.292 11.6004 116.366 11.8618C116.45 12.1231 116.492 12.3844 116.492 12.6458C116.492 13.2058 116.376 13.6864 116.142 14.0878C115.918 14.4798 115.62 14.8018 115.246 15.0538C114.873 15.3058 114.448 15.4878 113.972 15.5998C113.496 15.7211 113.011 15.7818 112.516 15.7818C111.947 15.7818 111.41 15.7118 110.906 15.5718C110.402 15.4318 109.964 15.2171 109.59 14.9278C109.217 14.6384 108.918 14.2698 108.694 13.8218C108.47 13.3644 108.354 12.8278 108.344 12.2118H110.094Z" fill="#95A0AF"/>
</svg>
